<svg width="177" height="177" viewBox="0 0 177 177" fill="none" xmlns="http://www.w3.org/2000/svg">
<rect x="144.818" width="32.1818" height="8.04545" fill="black" fill-opacity="0.3"/>
<rect x="168.955" y="8.04541" width="8.04545" height="24.1364" fill="black" fill-opacity="0.3"/>
<rect x="136.773" y="8.04541" width="8.04545" height="8.04545" fill="black" fill-opacity="0.3"/>
<rect x="128.727" y="16.0908" width="8.04545" height="8.04545" fill="black" fill-opacity="0.3"/>
<rect x="120.682" y="24.1362" width="8.04545" height="8.04545" fill="black" fill-opacity="0.3"/>
<rect x="112.636" y="32.1816" width="8.04545" height="8.04545" fill="black" fill-opacity="0.3"/>
<rect x="104.591" y="40.2271" width="8.04545" height="8.04545" fill="black" fill-opacity="0.3"/>
<rect x="96.5455" y="48.2729" width="8.04545" height="8.04545" fill="black" fill-opacity="0.3"/>
<rect x="88.5" y="56.3184" width="8.04545" height="8.04545" fill="black" fill-opacity="0.3"/>
<rect x="80.4545" y="64.3638" width="8.04545" height="8.04545" fill="black" fill-opacity="0.3"/>
<rect x="72.4091" y="72.4092" width="8.04545" height="8.04545" fill="black" fill-opacity="0.3"/>
<rect x="64.3635" y="80.4546" width="8.04545" height="8.04545" fill="black" fill-opacity="0.3"/>
<rect x="56.3182" y="88.5" width="8.04545" height="8.04545" fill="black" fill-opacity="0.3"/>
<rect x="48.2726" y="96.5454" width="8.04545" height="8.04545" fill="black" fill-opacity="0.3"/>
<rect x="56.3182" y="96.5454" width="8.04545" height="8.04545" fill="white" fill-opacity="0.3"/>
<rect x="56.3182" y="104.591" width="8.04545" height="8.04545" fill="#BBBBBB" fill-opacity="0.3"/>
<rect x="64.3635" y="104.591" width="8.04545" height="8.04545" fill="#707173" fill-opacity="0.7"/>
<rect x="64.3635" y="112.636" width="8.04545" height="8.04545" fill="#6B6F79" fill-opacity="0.3"/>
<rect x="64.3635" y="112.636" width="8.04545" height="8.04545" fill="#6B6F79" fill-opacity="0.3"/>
<path d="M72.4091 112.636H80.4545V120.682H72.4091V112.636Z" fill="#565D69" fill-opacity="0.3"/>
<path d="M80.4545 104.591H88.4999V112.636H80.4545V104.591Z" fill="#565D69" fill-opacity="0.3"/>
<path d="M88.5 96.5454H96.5455V104.591H88.5V96.5454Z" fill="#565D69" fill-opacity="0.3"/>
<path d="M96.5455 88.5H104.591V96.5455H96.5455V88.5Z" fill="#565D69" fill-opacity="0.3"/>
<path d="M104.591 80.4546H112.636V88.5H104.591V80.4546Z" fill="#565D69" fill-opacity="0.3"/>
<path d="M112.636 72.4092H120.682V80.4546H112.636V72.4092Z" fill="#565D69" fill-opacity="0.3"/>
<path d="M120.682 64.3638H128.727V72.4092H120.682V64.3638Z" fill="#565D69" fill-opacity="0.3"/>
<path d="M128.727 56.3184H136.773V64.3638H128.727V56.3184Z" fill="#565D69" fill-opacity="0.3"/>
<path d="M136.773 48.2729H144.818V56.3184H136.773V48.2729Z" fill="#565D69" fill-opacity="0.3"/>
<path d="M144.818 40.2271H152.864V48.2725H144.818V40.2271Z" fill="#565D69" fill-opacity="0.3"/>
<path d="M152.864 32.1816H160.909V40.2271H152.864V32.1816Z" fill="#565D69" fill-opacity="0.3"/>
<path d="M160.909 24.1362H168.955V32.1817H160.909V24.1362Z" fill="#565D69" fill-opacity="0.3"/>
<rect x="72.4091" y="104.591" width="8.04545" height="8.04545" fill="#6B6F79" fill-opacity="0.3"/>
<rect x="72.4091" y="104.591" width="8.04545" height="8.04545" fill="#6B6F79" fill-opacity="0.3"/>
<rect x="80.4545" y="96.5454" width="8.04545" height="8.04545" fill="#6B6F79" fill-opacity="0.3"/>
<rect x="80.4545" y="96.5454" width="8.04545" height="8.04545" fill="#6B6F79" fill-opacity="0.3"/>
<rect x="88.5" y="88.5" width="8.04545" height="8.04545" fill="#6B6F79" fill-opacity="0.3"/>
<rect x="88.5" y="88.5" width="8.04545" height="8.04545" fill="#6B6F79" fill-opacity="0.3"/>
<rect x="96.5455" y="80.4546" width="8.04545" height="8.04545" fill="#6B6F79" fill-opacity="0.3"/>
<rect x="96.5455" y="80.4546" width="8.04545" height="8.04545" fill="#6B6F79" fill-opacity="0.3"/>
<rect x="104.591" y="72.4092" width="8.04545" height="8.04545" fill="#6B6F79" fill-opacity="0.3"/>
<rect x="104.591" y="72.4092" width="8.04545" height="8.04545" fill="#6B6F79" fill-opacity="0.3"/>
<rect x="112.636" y="64.3638" width="8.04545" height="8.04545" fill="#6B6F79" fill-opacity="0.3"/>
<rect x="112.636" y="64.3638" width="8.04545" height="8.04545" fill="#6B6F79" fill-opacity="0.3"/>
<rect x="120.682" y="56.3184" width="8.04545" height="8.04545" fill="#6B6F79" fill-opacity="0.3"/>
<rect x="120.682" y="56.3184" width="8.04545" height="8.04545" fill="#6B6F79" fill-opacity="0.3"/>
<rect x="128.727" y="48.2729" width="8.04545" height="8.04545" fill="#6B6F79" fill-opacity="0.3"/>
<rect x="128.727" y="48.2729" width="8.04545" height="8.04545" fill="#6B6F79" fill-opacity="0.3"/>
<rect x="136.773" y="40.2271" width="8.04545" height="8.04545" fill="#6B6F79" fill-opacity="0.3"/>
<rect x="136.773" y="40.2271" width="8.04545" height="8.04545" fill="#6B6F79" fill-opacity="0.3"/>
<rect x="144.818" y="32.1816" width="8.04545" height="8.04545" fill="#6B6F79" fill-opacity="0.3"/>
<rect x="144.818" y="32.1816" width="8.04545" height="8.04545" fill="#6B6F79" fill-opacity="0.3"/>
<rect x="152.864" y="24.1362" width="8.04545" height="8.04545" fill="#6B6F79" fill-opacity="0.3"/>
<rect x="152.864" y="24.1362" width="8.04545" height="8.04545" fill="#6B6F79" fill-opacity="0.3"/>
<rect x="160.909" y="16.0908" width="8.04545" height="8.04545" fill="#6B6F79" fill-opacity="0.3"/>
<rect x="160.909" y="16.0908" width="8.04545" height="8.04545" fill="#6B6F79" fill-opacity="0.3"/>
<rect x="72.4091" y="96.5454" width="8.04545" height="8.04545" fill="#707173" fill-opacity="0.7"/>
<rect x="80.4545" y="88.5" width="8.04545" height="8.04545" fill="#707173" fill-opacity="0.7"/>
<rect x="88.5" y="80.4546" width="8.04545" height="8.04545" fill="#707173" fill-opacity="0.7"/>
<rect x="96.5455" y="72.4092" width="8.04545" height="8.04545" fill="#707173" fill-opacity="0.7"/>
<rect x="104.591" y="64.3638" width="8.04545" height="8.04545" fill="#707173" fill-opacity="0.7"/>
<rect x="112.636" y="56.3184" width="8.04545" height="8.04545" fill="#707173" fill-opacity="0.7"/>
<rect x="120.682" y="48.2729" width="8.04545" height="8.04545" fill="#707173" fill-opacity="0.7"/>
<rect x="128.727" y="40.2271" width="8.04545" height="8.04545" fill="#707173" fill-opacity="0.7"/>
<rect x="136.773" y="32.1816" width="8.04545" height="8.04545" fill="#707173" fill-opacity="0.7"/>
<rect x="144.818" y="24.1362" width="8.04545" height="8.04545" fill="#707173" fill-opacity="0.7"/>
<rect x="152.864" y="16.0908" width="8.04545" height="8.04545" fill="#707173" fill-opacity="0.7"/>
<rect x="160.909" y="8.04541" width="8.04545" height="8.04545" fill="#707173" fill-opacity="0.7"/>
<rect x="64.3635" y="96.5454" width="8.04545" height="8.04545" fill="#BBBBBB" fill-opacity="0.3"/>
<rect x="72.4091" y="88.5" width="8.04545" height="8.04545" fill="#BBBBBB" fill-opacity="0.3"/>
<rect x="80.4545" y="80.4546" width="8.04545" height="8.04545" fill="#BBBBBB" fill-opacity="0.3"/>
<rect x="88.5" y="72.4092" width="8.04545" height="8.04545" fill="#BBBBBB" fill-opacity="0.3"/>
<rect x="96.5455" y="64.3638" width="8.04545" height="8.04545" fill="#BBBBBB" fill-opacity="0.3"/>
<rect x="104.591" y="56.3184" width="8.04545" height="8.04545" fill="#BBBBBB" fill-opacity="0.3"/>
<rect x="112.636" y="48.2729" width="8.04545" height="8.04545" fill="#BBBBBB" fill-opacity="0.3"/>
<rect x="120.682" y="40.2271" width="8.04545" height="8.04545" fill="#BBBBBB" fill-opacity="0.3"/>
<rect x="128.727" y="32.1816" width="8.04545" height="8.04545" fill="#BBBBBB" fill-opacity="0.3"/>
<rect x="136.773" y="24.1362" width="8.04545" height="8.04545" fill="#BBBBBB" fill-opacity="0.3"/>
<rect x="144.818" y="16.0908" width="8.04545" height="8.04545" fill="#BBBBBB" fill-opacity="0.3"/>
<rect x="152.864" y="8.04541" width="8.04545" height="8.04545" fill="#BBBBBB" fill-opacity="0.3"/>
<rect x="64.3635" y="88.5" width="8.04545" height="8.04545" fill="white" fill-opacity="0.3"/>
<rect x="72.4091" y="80.4546" width="8.04545" height="8.04545" fill="white" fill-opacity="0.3"/>
<rect x="80.4545" y="72.4092" width="8.04545" height="8.04545" fill="white" fill-opacity="0.3"/>
<rect x="88.5" y="64.3638" width="8.04545" height="8.04545" fill="white" fill-opacity="0.3"/>
<rect x="96.5455" y="56.3184" width="8.04545" height="8.04545" fill="white" fill-opacity="0.3"/>
<rect x="104.591" y="48.2729" width="8.04545" height="8.04545" fill="white" fill-opacity="0.3"/>
<rect x="112.636" y="40.2271" width="8.04545" height="8.04545" fill="white" fill-opacity="0.3"/>
<rect x="120.682" y="32.1816" width="8.04545" height="8.04545" fill="white" fill-opacity="0.3"/>
<rect x="128.727" y="24.1362" width="8.04545" height="8.04545" fill="white" fill-opacity="0.3"/>
<rect x="136.773" y="16.0908" width="8.04545" height="8.04545" fill="white" fill-opacity="0.3"/>
<rect x="144.818" y="8.04541" width="8.04545" height="8.04545" fill="white" fill-opacity="0.3"/>
<rect x="40.2274" y="96.5454" width="8.04545" height="8.04545" fill="black" fill-opacity="0.3"/>
<rect x="32.1818" y="88.5" width="8.04545" height="8.04545" fill="black" fill-opacity="0.3"/>
<rect x="48.2726" y="104.591" width="8.04545" height="8.04545" fill="black" fill-opacity="0.3"/>
<rect x="56.3182" y="112.636" width="8.04545" height="8.04545" fill="black" fill-opacity="0.3"/>
<rect x="72.4091" y="120.682" width="8.04545" height="8.04545" fill="black" fill-opacity="0.3"/>
<rect x="72.4091" y="128.727" width="8.04545" height="8.04545" fill="black" fill-opacity="0.3"/>
<rect x="80.4545" y="136.773" width="8.04545" height="8.04545" fill="black" fill-opacity="0.3"/>
<rect x="72.4091" y="144.818" width="8.04545" height="8.04545" fill="black" fill-opacity="0.3"/>
<rect x="64.3635" y="136.773" width="8.04545" height="8.04545" fill="black" fill-opacity="0.3"/>
<rect x="56.3182" y="128.727" width="8.04545" height="8.04545" fill="black" fill-opacity="0.3"/>
<rect x="48.2726" y="120.682" width="8.04545" height="8.04545" fill="black" fill-opacity="0.3"/>
<rect x="48.2726" y="128.727" width="8.04545" height="8.04545" fill="black" fill-opacity="0.3"/>
<rect x="32.1818" y="144.818" width="8.04545" height="8.04545" fill="black" fill-opacity="0.3"/>
<rect x="40.2274" y="136.773" width="8.04545" height="8.04545" fill="black" fill-opacity="0.3"/>
<rect x="24.1365" y="136.773" width="8.04545" height="8.04545" fill="black" fill-opacity="0.3"/>
<rect x="16.0909" y="144.818" width="8.04545" height="8.04545" fill="black" fill-opacity="0.3"/>
<rect x="8.04553" y="144.818" width="8.04545" height="8.04545" fill="black" fill-opacity="0.3"/>
<rect x="16.0909" y="168.955" width="8.04545" height="8.04545" fill="black" fill-opacity="0.3"/>
<rect x="8.04553" y="168.955" width="8.04545" height="8.04545" fill="black" fill-opacity="0.3"/>
<rect x="24.1365" y="152.864" width="8.04545" height="8.04545" fill="black" fill-opacity="0.3"/>
<rect x="24.1365" y="160.909" width="8.04545" height="8.04545" fill="black" fill-opacity="0.3"/>
<rect y="152.864" width="8.04545" height="8.04545" fill="black" fill-opacity="0.3"/>
<rect y="160.909" width="8.04545" height="8.04545" fill="black" fill-opacity="0.3"/>
<rect x="32.1818" y="128.727" width="8.04545" height="8.04545" fill="black" fill-opacity="0.3"/>
<rect x="40.2274" y="112.636" width="8.04545" height="8.04545" fill="black" fill-opacity="0.3"/>
<rect x="40.2274" y="120.682" width="8.04545" height="8.04545" fill="black" fill-opacity="0.3"/>
<rect x="32.1818" y="104.591" width="8.04545" height="8.04545" fill="black" fill-opacity="0.3"/>
<rect x="24.1365" y="96.5454" width="8.04545" height="8.04545" fill="black" fill-opacity="0.3"/>
<rect x="64.3635" y="120.682" width="8.04545" height="8.04545" fill="black" fill-opacity="0.3"/>
<rect x="160.909" y="32.1816" width="8.04545" height="8.04545" fill="black" fill-opacity="0.3"/>
<rect x="152.864" y="40.2271" width="8.04545" height="8.04545" fill="black" fill-opacity="0.3"/>
<rect x="144.818" y="48.2729" width="8.04545" height="8.04545" fill="black" fill-opacity="0.3"/>
<rect x="136.773" y="56.3184" width="8.04545" height="8.04545" fill="black" fill-opacity="0.3"/>
<rect x="128.727" y="64.3638" width="8.04545" height="8.04545" fill="black" fill-opacity="0.3"/>
<rect x="120.682" y="72.4092" width="8.04545" height="8.04545" fill="black" fill-opacity="0.3"/>
<rect x="112.636" y="80.4546" width="8.04545" height="8.04545" fill="black" fill-opacity="0.3"/>
<rect x="104.591" y="88.5" width="8.04545" height="8.04545" fill="black" fill-opacity="0.3"/>
<rect x="96.5455" y="96.5454" width="8.04545" height="8.04545" fill="black" fill-opacity="0.3"/>
<rect x="88.5" y="104.591" width="8.04545" height="8.04545" fill="black" fill-opacity="0.3"/>
<rect x="80.4545" y="112.636" width="8.04545" height="8.04545" fill="black" fill-opacity="0.3"/>
<rect x="32.1818" y="96.5454" width="8.04545" height="8.04545" fill="#EDEBC2"/>
<rect x="40.2274" y="104.591" width="8.04545" height="8.04545" fill="#EDEBC2"/>
<rect x="48.2726" y="112.636" width="8.04545" height="8.04545" fill="#E0DD83" fill-opacity="0.46"/>
<rect x="56.3182" y="120.682" width="8.04545" height="8.04545" fill="#B49953" fill-opacity="0.3"/>
<rect x="64.3635" y="128.727" width="8.04545" height="8.04545" fill="#B49953" fill-opacity="0.3"/>
<rect x="72.4091" y="136.773" width="8.04545" height="8.04545" fill="#B49953" fill-opacity="0.3"/>
<rect x="8.04553" y="152.864" width="8.04545" height="8.04545" fill="#992929" fill-opacity="0.3"/>
<rect x="16.0909" y="152.864" width="8.04545" height="8.04545" fill="#8A0909" fill-opacity="0.3"/>
<rect x="24.1365" y="144.818" width="8.04545" height="8.04545" fill="#470808" fill-opacity="0.3"/>
<rect x="32.1818" y="136.773" width="8.04545" height="8.04545" fill="#470808" fill-opacity="0.3"/>
<rect x="40.2274" y="128.727" width="8.04545" height="8.04545" fill="#470808" fill-opacity="0.3"/>
<rect x="16.0909" y="160.909" width="8.04545" height="8.04545" fill="#8B1A1A" fill-opacity="0.3"/>
<rect x="8.04553" y="160.909" width="8.04545" height="8.04545" fill="#8A0909" fill-opacity="0.3"/>
</svg>
