<?xml version="1.0" encoding="UTF-8"?><svg id="Camada_2" xmlns="http://www.w3.org/2000/svg" viewBox="0 0 435.08 156"><defs><style>.cls-1{fill:#8f00ff;stroke-width:0px;}</style></defs><g id="Camada_1-2"><path class="cls-1" d="M366.26,65.92s0-.03,0-.04c-.01,0-.03,0-.04,0l.04.04Z"/><path class="cls-1" d="M351.92,52.7c3.66-.08,7.33-.04,11-.05,2.63,0,3.14.54,3.17,3.15.04,3.36.11,6.71.16,10.07,4.12.02,8.23.07,12.35.05,1.6-.01,2.35.61,2.32,2.26-.05,3.2-.02,6.4,0,9.6,0,1.82.55,2.36,2.42,2.36,3.78,0,7.57-.06,11.35.03,1.67.04,2.31-.58,2.28-2.23-.06-3.2-.02-6.4-.02-9.6,0-1.96.4-2.39,2.33-2.39,3.61-.02,7.22-.06,10.82.03,1.56.04,2.04-.55,1.99-2.04-.09-2.73-.04-5.47-.04-8.2,0-2.46.61-3.05,3.11-3.06,3.78,0,7.56-.05,11.35,0,1.15.02,1.93-.45,1.93-1.5.03-3.59-.09-7.18-.17-10.78-.03-1.31-.83-1.55-1.99-1.53-3.9.06-7.8.04-11.7.02-2.3,0-2.51-.22-2.52-2.46-.01-2.85-.06-5.7.02-8.55.04-1.46-.5-1.94-1.93-1.91-3.61.06-7.22.03-10.82,0-1.85-.01-2.37-.56-2.38-2.41-.01-3.26-.04-6.52.02-9.77.03-1.51-.56-2.04-2.07-2.01-3.9.08-7.8.02-11.7.02-1.96,0-2.27.33-2.28,2.38,0,3.14.02,6.28,0,9.43-.01,1.84-.59,2.39-2.42,2.39-3.43,0-6.87.09-10.3-.04-1.75-.07-2.19.6-2.14,2.21.1,2.79.03,5.58.03,8.38,0,2.12-.18,2.33-2.25,2.35-4.07.02-8.15.07-12.22-.03-1.5-.04-1.97.54-1.96,1.91.03,3.26.08,6.52-.02,9.77-.06,1.74.68,2.2,2.29,2.17Z"/><path class="cls-1" d="M168.62,132.74c-1.57-1.1-1.57-1.86-.4-3.56,2.18-3.16,2.94-6.48,1.72-10.27-1.39-4.33-4.81-7.51-9.47-7.53-13.33-.07-26.65-.07-39.98-.1-2.23,0-2.25,0-2.25,2.31,0,12.92,0,25.84,0,38.75v2.79c.72.04,1.17.09,1.63.09,12.28,0,24.56.04,36.84-.02,2.1,0,4.25-.21,6.3-.63,3.88-.8,6.99-2.52,8.86-6.45,2.25-4.74,1.4-12.12-3.26-15.38ZM128.28,118.58c9.76,0,19.34,0,28.93,0,1.56,0,2.75.91,2.94,2.21.27,1.88.08,3.87-.13,5.78-.18,1.59-1.5,1.89-2.86,1.91-2.21.03-4.42.05-6.63.05-6.87,0-13.73-.04-20.6.03-1.32.01-1.72-.35-1.68-1.65.09-2.72.03-5.45.03-8.33ZM163.01,143.4c-.06,2.59-1.36,3.93-3.96,3.94-9.65.03-19.3.02-28.94.03-.52,0-1.04,0-1.83,0,0-3.41-.04-6.65.05-9.89.01-.37.72-1.04,1.1-1.04,9.82-.05,19.64-.07,29.47,0,2.63.02,4.07,1.7,4.12,4.35.02.87.01,1.74,0,2.61Z"/><path class="cls-1" d="M111.49.02c-5.12,0-10.24,0-15.37.02-2.37,0-2.6.23-2.6,2.61-.01,8.85-.04,17.69.02,26.54,0,1.4-.27,1.9-1.8,1.9-20.08-.05-40.16-.05-60.24,0-1.55,0-1.96-.49-1.95-2.01.06-9.02-.01-18.04.05-27.06C29.6.45,29.06-.02,27.57,0c-5.3.06-10.59.06-15.89.03-1.42,0-2.12.43-2.11,2,.03,25.26.04,50.51.01,75.77,0,1.29.39,1.7,1.7,1.68,5.47-.07,10.94-.09,16.41.02,1.61.03,1.92-.54,1.91-2-.05-8.96.02-17.92-.06-26.88-.02-1.83.65-2.24,2.34-2.24,19.96.05,39.93.03,59.89.03.51,0,1.02.05,1.73.09,0,.78,0,1.46,0,2.14,0,8.9.04,17.81-.03,26.71-.01,1.67.48,2.19,2.18,2.13,3.95-.13,7.91-.04,11.87-.03,2.08,0,4.16,0,6.41,0v-1.89c0-25.02,0-50.05,0-75.07,0-2.27-.19-2.47-2.46-2.47ZM108.9,76.5c-3.55-.14-7.1-.12-10.65-.02-1.44.04-1.77-.47-1.76-1.8.05-9.08-.01-18.16.06-27.24.01-1.62-.49-2.08-2.1-2.07-21.65.04-43.3.02-64.96.02q-2.5,0-2.51,2.43c0,8.79,0,17.58,0,26.36q0,2.26-2.2,2.25c-3.55,0-7.1-.04-10.65.02-1.14.02-1.53-.35-1.53-1.49.03-23.45.04-46.91.01-70.36,0-1.37.51-1.65,1.74-1.63,3.55.06,7.1.07,10.65-.02,1.5-.03,2.01.45,2,2-.06,9.08,0,18.16-.05,27.24,0,1.41.36,1.89,1.85,1.89,22-.05,44-.04,66,0,1.48,0,1.73-.6,1.73-1.87-.04-8.85-.02-17.69-.03-26.54q0-2.68,2.59-2.68c3.26,0,6.52.07,9.78-.03,1.56-.05,2.11.34,2.1,2.02-.07,11.58-.04,23.16-.04,34.74h.03c0,11.52-.03,23.05.03,34.57,0,1.63-.35,2.26-2.11,2.19Z"/><path class="cls-1" d="M434.83,140.27c-.58-2.48-1.46-4.86-3.86-6.61-3.4-2.47-7.28-3.1-11.13-3.64-5.83-.82-11.74-1.02-17.61-1.56-3.15-.29-6.29-.68-9.41-1.12-1.53-.22-2.64-1.82-2.67-3.55-.06-3.03.39-3.99,2.56-4.36,3.4-.57,6.84-1.33,10.26-1.27,5.13.08,10.25.71,15.36,1.27,2.61.29,4.12,2.02,4.84,4.54.14.48.84,1.1,1.31,1.12,2.44.11,4.89.03,7.33.06,1.09.01,1.5-.48,1.31-1.5-.78-4.08-2.98-7.28-6.47-9.4-3.8-2.3-8.16-3.05-12.5-3.47-2.71-.26-5.46-.05-8.2-.05,0-.15-.02-.31-.02-.46-3.68.34-7.35.77-11.03.97-2.8.15-5.42.76-8.03,1.81-3.2,1.28-5.35,3.61-6.53,6.62-1.87,4.76,1.79,12.18,6.73,13.78,3.27,1.06,6.63,2.1,10.02,2.44,6.64.67,13.32.8,19.98,1.24,2.4.16,4.79.61,6.8,2.08,1.34.98,1.65,4.87.3,5.75-1.54,1-3.31,2.14-5.05,2.25-5.85.37-11.74.44-17.61.36-2.68-.04-5.45-.39-8.02-1.14-2.44-.71-4.96-1.81-5.05-5.14-.01-.38-.8-1.03-1.25-1.04-2.5-.1-5-.03-7.5-.05-.9,0-1.32.41-1.17,1.28.16.95.32,1.93.65,2.83.69,1.92,1.3,3.81,2.87,5.39,2.74,2.74,6.22,3.92,9.71,4.7,4.94,1.11,10.01,1.79,15.14,1.56,2.44-.11,4.89-.04,7.33-.06.41,0,.83.04,1.22-.05,3.72-.86,7.42-1.81,11.16-2.59,2.58-.54,4.5-2.13,5.97-4.04,1.97-2.56,3.04-5.7,2.29-8.94Z"/><path class="cls-1" d="M228.55,118.82c-2.51-4.08-6.09-7.21-10.95-7.31-12.78-.28-25.58-.09-38.72-.09v2.69c0,10.18,0,20.36,0,30.54,0,2.97.04,5.93,0,8.9-.02,1.24.32,1.78,1.68,1.71,2.15-.11,4.31-.08,6.46,0,1.16.04,1.53-.38,1.51-1.51-.05-2.97-.02-5.93-.02-8.9,0-1.23.25-2.15,1.81-2.14,6.05.03,12.1,0,18.15.04.49,0,1.18.3,1.42.68,1.99,3.16,3.97,6.34,5.81,9.59.95,1.68,2.07,2.43,4.08,2.26,2.37-.21,4.77-.04,7.15-.04.43,0,.86-.08,1.46-.14-.83-1.51-1.5-2.87-2.32-4.14-1.53-2.4-3.22-4.71-4.66-7.16-.41-.69-1.18-1.82.04-2.63.89-.59,1.85-1.08,2.79-1.6,2.48-1.37,3.97-3.58,4.93-6.13,1.28-3.41,1.51-6.96.78-10.53-.29-1.4-.63-2.88-1.36-4.07ZM219.11,132.13c-1.4,1.93-3.56,2.43-5.61,2.47-7.85.17-15.7.09-23.56.13-1.04,0-1.46-.42-1.46-1.45.02-4.19.02-8.38-.02-12.56-.02-1.38.81-1.44,1.83-1.44,3.9.02,7.8,0,11.69,0,0,.12,0,.23,0,.35,4.59,0,9.18-.08,13.76.04,1.9.05,3.98,2.47,4.58,4.28.99,2.99.62,5.65-1.21,8.18Z"/><path class="cls-1" d="M195.9,76.99c1.56-.51,3.06-1.24,4.53-1.99,2.32-1.19,4.78-2.22,6.82-3.78,3.55-2.71,6.57-6.01,8.46-10.14,1.08-2.37,2.2-4.79,2.81-7.31.75-3.12,1.83-6.16,1.73-9.51-.2-6.51-.06-13.04-.06-19.55h.06c0-7.51-.04-15.02.03-22.52.02-1.7-.54-2.2-2.21-2.17-5.06.09-10.13.02-15.19.02q-2.53,0-2.53,2.46c0,12.11-.03,24.21.01,36.32.01,3.49-.48,6.86-1.31,10.27-1.35,5.6-5.28,8.89-9.99,11.05-4.26,1.95-8.99,2.74-13.8,2.76-7.47.03-14.94.33-22.06-2.56-2.96-1.2-5.7-2.96-7.55-5.42-2.54-3.38-3.72-7.48-3.72-11.8-.02-13.5-.03-27.01-.06-40.51,0-2.31-.23-2.54-2.49-2.54-5.12-.01-10.25-.02-15.37-.02-2.23,0-2.54.29-2.51,2.48.19,14.65.34,29.3.64,43.94.05,2.62.23,5.44,1.21,7.8,1.93,4.61,3.62,9.32,7.22,13.19,3.89,4.18,8.49,6.92,13.66,8.9,2.08.79,4.27,1.33,6.45,1.82,3.28.74,6.58,1.77,9.9,1.9,9.6.37,19.24.97,28.73-1.3,2.21-.53,4.43-1.07,6.59-1.77ZM166.31,77.71c-5.39-.24-10.79-.79-15.97-2.56-2.98-1.02-6.18-1.56-8.97-2.93-3.76-1.85-7.3-4.2-9.7-7.84-.25-.37-.6-.67-.87-1.04-2.61-3.63-4.19-7.67-4.98-12.07-2.81-15.52-.7-31.17-1.37-46.74-.05-1.15.4-1.54,1.51-1.54,3.84.03,7.68.04,11.52-.02,1.6-.03,1.39,1.02,1.39,2,0,11-.06,22,.03,32.99.03,3.4.04,6.9.82,10.18,1.36,5.76,4.31,10.47,9.92,13.4,3.84,2,7.8,3.3,12.01,3.64,5.35.43,10.77.86,16.1.47,4.11-.3,8.25-1.55,12.15-2.98,4.97-1.82,8.86-5.24,10.95-10.23.91-2.18,1.71-4.59,1.79-6.92.44-14.08.66-28.16.96-42.5,1.86,0,4,0,6.13,0,2.15,0,4.31.04,6.46-.01,1.13-.03,1.55.44,1.55,1.55-.05,12.51.2,25.03-.23,37.53-.17,4.98-1.42,10.04-2.96,14.81-1.03,3.2-3.18,6.16-5.34,8.83-1.63,2.01-3.91,3.64-6.17,4.98-3.55,2.11-7.39,3.48-11.48,4.53-8.34,2.15-16.74,2.86-25.25,2.49Z"/><path class="cls-1" d="M297.29,136.57c-.52,1.73-.66,3.57-1.56,4.88-2.3,3.37-5.91,5.35-9.77,5.66-5.65.44-11.44,1.23-16.99-1.2-2.81-1.23-5.1-3.08-6.14-5.83-1.75-4.62-1.54-9.45-.07-14.14.36-1.14,1.25-2.2,2.12-3.07,3.25-3.25,7.49-4.16,11.82-4.19,3.91-.03,7.83.49,11.73.92,3.57.4,7.14,3.87,8.02,7.32.21.83.93,2.14,1.49,2.18,2.99.22,6,.1,9.15.1-.05-.76.03-1.31-.14-1.76-.64-1.81-1.36-3.6-2.02-5.4-1.32-3.57-4.12-5.87-7.11-7.82-3.62-2.35-7.91-3.17-12.1-3.46-8.19-.56-16.46-.76-24.04,3.25-2.76,1.46-5.27,3.52-6.75,6.28-1.25,2.33-1.83,5.02-2.66,7.56-1.36,4.2-.8,8.49.34,12.51,1.22,4.28,3.51,8.13,7.62,10.62,1.69,1.02,3.48,1.65,5.2,2.49,3.37,1.64,6.97,2.02,10.49,2.29,3.89.29,7.89-.06,11.77-.62,2.87-.41,5.77-1.26,8.4-2.48,4.2-1.96,7.57-5.04,9.31-9.46.81-2.06,2.06-4.12,1.6-6.64h-9.72Z"/><path class="cls-1" d="M102.88,137.47c-1.6-3.02-3.26-6.01-4.89-9.02-2.95-5.45-5.89-10.91-8.89-16.33-.23-.41-.91-.78-1.39-.79-3.72-.07-7.45-.07-11.17,0-.49,0-1.17.37-1.41.78-2.17,3.73-4.28,7.48-6.35,11.26-1.63,2.99-3.17,6.03-4.75,9.04-1.75,3.32-3.45,6.66-5.27,9.94-1.56,2.83-3.29,5.57-4.87,8.39-.76,1.36-1.32,2.82-2.07,4.44,3.51,0,6.8.01,10.1-.02.3,0,.74-.19.86-.43,1.47-2.77,2.85-5.59,4.38-8.33.32-.57,1.14-1.21,1.73-1.21,8.73-.08,17.45-.08,26.18-.02.63,0,1.55.46,1.84.98,1.4,2.53,2.58,5.18,3.97,7.71.32.59,1.15,1.25,1.77,1.28,3.01.13,6.04.06,9.06.06.16-.14.32-.28.47-.43-.89-1.54-1.83-3.06-2.67-4.63-2.24-4.21-4.41-8.46-6.64-12.68ZM92.16,137.42c-.29.27-.79.43-1.21.43-2.97.03-5.93.02-8.9.02v-.02c-2.85,0-5.7,0-8.55,0-1.23,0-2-.13-1.08-1.67,1.85-3.13,3.56-6.33,5.31-9.52,1.2-2.2,2.36-4.43,3.56-6.62.14-.25.58-.61.71-.55.37.17.76.47.96.83,1.65,2.98,3.24,6,4.9,8.98,1.33,2.37,2.75,4.7,4.09,7.06.18.31.35.92.21,1.06Z"/><path class="cls-1" d="M364.08,138.55c-2.35-4.35-4.53-8.8-6.9-13.14-2.38-4.37-4.96-8.63-7.32-13.01-.48-.89-.95-1.14-1.84-1.14-2.68.03-5.36.06-8.03,0-2.27-.05-4.07-.18-5.25,2.73-1.74,4.29-4.41,8.21-6.65,12.31-2.45,4.49-4.86,9.01-7.29,13.51-.7,1.3-1.45,2.58-2.15,3.89-1.24,2.31-2.45,4.63-3.68,6.94-.76,1.43-1.55,2.85-2.5,4.6,3.65,0,6.67.04,9.69-.04.52-.01,1.25-.43,1.5-.88,1.3-2.29,2.46-4.66,3.72-6.97.57-1.06.85-2.27,2.62-2.25,8.61.1,17.23.03,25.84.07.52,0,1.29.2,1.5.57,1.23,2.1,2.26,4.32,3.51,6.42.66,1.11,1.54,2.82,2.47,2.93,3.09.37,6.25.14,9.71.14-.66-1.42-1.16-2.66-1.8-3.83-2.36-4.29-4.82-8.52-7.15-12.82ZM352.79,137.73h-20.05c.15-.67.14-1.28.41-1.74,1.53-2.66,3.19-5.26,4.68-7.94,1.4-2.54,2.63-5.18,3.98-7.75.19-.36.6-.79.94-.81.35-.02.88.32,1.06.66,1.81,3.22,3.57,6.47,5.33,9.72,1.24,2.29,2.45,4.59,3.64,6.9.11.22.02.56.02.97Z"/><path class="cls-1" d="M0,111.41v43.82c2.64,0,5.13-.06,7.62.02,1.42.05,1.95-.38,1.91-1.86-.09-3.78-.03-7.56-.02-11.34,0-.78-.07-1.59,1.11-1.52.85.05,1.7.09,2.55.1,9.18.07,18.37.11,27.55.22,1.35.02,1.72-.52,1.68-1.76-.06-1.68-.08-3.38.01-5.06.07-1.4-.46-1.74-1.83-1.73-9.19.06-18.39.03-27.58.03-1.09,0-2.18,0-3.39,0v-13.06c.77,0,1.34,0,1.92,0,5.76,0,11.52,0,17.28,0,5.3,0,10.59.03,15.88-.04.52,0,1.45-.54,1.47-.87.13-2.3.07-4.6.07-6.96H0Z"/><path class="cls-1" d="M325.56,57.18c.14-2.21-.26-4.47-.59-6.69-.64-4.38-2.65-8.1-5.79-11.19-.77-.76-1.77-1.3-2.51-2.09-.33-.35-.54-1.2-.35-1.6.89-1.88,2.18-3.6,2.88-5.53.77-2.12,1.33-4.39,1.52-6.64.35-4.16-.19-8.16-2-12.1-2-4.34-5.21-7.2-9.36-8.98-4.62-1.99-9.7-2.22-14.62-2.26-21.42-.16-42.84-.06-64.26-.05-2.07,0-2.26.21-2.26,2.34,0,12.51,0,25.03,0,37.54h0c0,12.4,0,24.79,0,37.19,0,2.32,0,2.33,2.39,2.33,22.29,0,44.59.06,66.88-.06,3.77-.02,7.54-.78,11.3-1.28,4.01-.54,7.11-2.77,10.12-5.35,4.85-4.14,6.24-9.65,6.62-15.57ZM316.02,71.76c-1.87,1.45-4.24,2.36-6.5,3.21-5.98,2.25-12.26,1.42-18.43,1.44-19.32.07-38.64.01-57.96.05-1.4,0-1.9-.31-1.9-1.83.05-23.1.04-46.2.04-69.3q0-2.33,2.39-2.33c21.12,0,42.25.04,63.37-.05,4.54-.02,8.77,1.2,12.89,2.71,1.69.62,3.12,2.32,4.34,3.8,2.98,3.62,3.89,8.08,3.91,12.58,0,2.45-1.04,4.89-1.59,7.34-.72,3.17-3.15,5.2-5.17,7.68.56.47,1.04,1.12,1.67,1.36,3.1,1.19,5.01,3.63,6.78,6.22.69,1.02,1.45,2.14,1.65,3.31.52,3.06,1.04,6.18,1.03,9.27-.02,5.74-1.86,10.91-6.52,14.54Z"/><path class="cls-1" d="M236.28,113.24c0,10.12,0,20.23,0,30.35,0,3.37-.03,6.75.05,10.12.01.51.55,1.44.88,1.45,2.83.12,5.66.07,8.58.07v-43.81h-9.51v1.83Z"/><path class="cls-1" d="M426.04,65.98c-1.91.11-3.83.03-5.75.03-2.09,0-4.18.02-6.27-.01-.88-.01-1.48.19-1.51,1.21-.11,3.41-.38,6.83-.31,10.23.04,2.18.84,2.69,2.99,2.7,3.54,0,7.09-.05,10.63.04,1.43.03,2.44-.29,2.48-1.87.09-3.47.18-6.94.11-10.41-.03-1.33-.89-1.99-2.36-1.91Z"/><path class="cls-1" d="M349.65,68.26c.07,3.2.05,6.4.01,9.6-.02,1.62.68,2.31,2.31,2.29,3.96-.04,7.91,0,11.87-.02,1.56,0,1.96-.74,1.98-2.3.03-3.97.25-7.94.39-11.91-4.75.03-9.51.08-14.26.07-1.6,0-2.33.61-2.29,2.27Z"/><path class="cls-1" d="M366.25,65.92s-.04-.04-.04-.04c0,.01,0,.03,0,.04.02,0,.03,0,.05,0Z"/><path class="cls-1" d="M414.06,25.54c2.09-.02,4.18,0,6.27,0h0c1.92,0,3.83.02,5.75,0,2.12-.02,2.47-.4,2.48-2.6,0-2.5.03-5-.02-7.49-.02-.85-.11-1.76-.44-2.53-.21-.48-.91-1.05-1.4-1.06-4.18-.09-8.36-.04-12.55-.07-.96,0-1.63.31-1.64,1.34-.03,3.69-.01,7.37-.03,11.06,0,1.09.61,1.37,1.57,1.36Z"/><path class="cls-1" d="M349.67,23.24c0,2.1.2,2.28,2.28,2.3,4.3.06,8.6.13,12.89.18,1.01.01,1.1-.5,1.06-1.46-.15-3.47-.27-6.96-.07-10.43.09-1.58-.42-2.01-1.76-2.02-2.09-.01-4.19,0-6.28,0-2.09,0-4.19.05-6.28-.02-1.38-.05-1.87.55-1.85,1.87.03,3.2,0,6.4,0,9.6Z"/><path class="cls-1" d="M93.19,100.2c.31-.07.83-.29.83-.45.06-2.14.04-4.28.04-6.39-8.24,1.66-16.11,3.24-23.93,4.82v7.03c1.2-.36,2.09-.71,3.02-.89,4.21-.85,8.43-1.65,12.64-2.49,2.48-.5,4.94-1.06,7.4-1.61Z"/><path class="cls-1" d="M299.56,44.7c-8.61-.1-17.22-.03-25.82-.03v-.1c-8.78,0-17.57.03-26.35-.03-1.4,0-1.79.44-1.78,1.8.06,5.82.08,11.63,0,17.45-.02,1.59.4,2.13,2.04,2.09,4.36-.11,8.72-.04,13.09-.04,12.45,0,24.9.05,37.34-.07,3.49-.04,7.06-.71,8.9-4.2,1.46-2.78,1.49-5.94,1.14-9.02-.56-4.81-3.72-7.79-8.56-7.85ZM304.91,58.76c-.21,2.2-2.3,3.97-4.58,3.98-8.43.04-16.87.01-25.3.01,0,.02,0,.04,0,.06-8.32,0-16.63-.03-24.95.03-1.5.01-1.92-.5-1.89-1.92.07-3.89.05-7.79.02-11.69-.01-1.51.46-2.18,2.07-1.72.59.17,1.27.06,1.91.06,15.99.04,31.99.06,47.98.12,2.92.01,4.64,1.52,4.87,4.45.17,2.18.07,4.41-.13,6.59Z"/><path class="cls-1" d="M245.6,31.95c-.02,1.52.33,2.11,2.04,2.1,13.26-.08,26.53,0,39.79-.08,3.4-.02,6.8-.4,10.19-.76,2.49-.26,5.42-3.07,5.58-5.53.15-2.31.87-4.53.27-7-.77-3.22-2.15-5.72-5.26-6.82-1.59-.56-3.43-.58-5.16-.59-7.33-.06-14.66-.03-21.99-.03h0c-7.85-.01-15.71.02-23.56-.04-1.42-.01-1.92.34-1.9,1.83.08,5.64.07,11.28,0,16.93ZM250.16,16.22c7.44.05,14.89.03,22.33.03h0c6.51,0,13.03-.01,19.54,0,.99,0,1.98,0,2.96.09,3.82.36,4.25-.06,5.64,4.46.86,2.8.65,5.87-1.3,8.44-.32.42-.86.85-1.36.93-2.11.34-4.24.76-6.36.78-13.67.07-27.33.04-41,.04-2.16,0-2.36-.2-2.38-2.43-.02-3.49.04-6.98-.04-10.46-.03-1.48.55-1.88,1.96-1.87Z"/></g></svg>